<svg id="Layer_1" data-name="Layer 1" xmlns="http://www.w3.org/2000/svg" viewBox="0 0 653.44 92"><defs><style>.cls-1{fill:#1a428a;}</style></defs><path class="cls-1" d="M273.06,59.8l9.49-20.7a32.6,32.6,0,0,1,9.25-11.5c5.25-4.2,11.58-6.9,17.29-6.9h54.29c10,0,14.33,8.24,9.66,18.4L372,41.4h-36.2l6.33-13.8H324L304,71.3h18.1l6.33-13.8h36.2l-1.06,2.3C358.89,70,347,78.2,337,78.2H282.72C272.72,78.2,268.4,70,273.06,59.8ZM454.65,78.2l23.21-50.6H496L472.75,78.2H509l17.93-39.1c4.66-10.16.34-18.4-9.66-18.4H444.83L418.45,78.2Zm-49.77,0,26.38-57.5h-36.2L368.68,78.2ZM172.16,52.9a32.6,32.6,0,0,1,9.25-11.5c5.24-4.2,11.57-6.9,17.29-6.9h36.19l3.16-6.9H192.81L196,20.7h63.34c10,0,14.32,8.24,9.66,18.4L251,78.2H178.65c-10,0-14.32-8.24-9.66-18.4Zm27.76,18.4H218l13.72-29.9h-18.1ZM440.75,0h-36.2l-6.33,13.8h36.2ZM649.91,18.72l1.32,2.14-1.46,0a.44.44,0,0,1-.44-.23l-1.06-1.83a.45.45,0,0,0-.16-.15.62.62,0,0,0-.27-.05h-.38l0,2.3L646,21l-.13-6.33,2.26-.05a3.22,3.22,0,0,1,2,.43,1.63,1.63,0,0,1,.64,1.35,1.76,1.76,0,0,1-1.3,1.81.85.85,0,0,1,.28.22C649.76,18.49,649.83,18.6,649.91,18.72Zm-.68-2.13a2,2,0,0,0-.06-.39.52.52,0,0,0-.15-.27.82.82,0,0,0-.34-.15,1.7,1.7,0,0,0-.53,0h-.75l0,1.81h.63a2.32,2.32,0,0,0,.59-.07,1,1,0,0,0,.37-.19.64.64,0,0,0,.17-.3A1.64,1.64,0,0,0,649.23,16.59Zm4.21,1.07a4.83,4.83,0,0,1-.16,1.38,5,5,0,0,1-.5,1.26,5.41,5.41,0,0,1-.79,1.06,4.68,4.68,0,0,1-1,.84,5.25,5.25,0,0,1-2.61.77,5,5,0,0,1-1.39-.16,5,5,0,0,1-1.25-.5,5.19,5.19,0,0,1-1.07-.79,4.86,4.86,0,0,1-.84-1,5.25,5.25,0,0,1-.77-2.61,5.81,5.81,0,0,1,.16-1.39,5,5,0,0,1,.5-1.25,5.54,5.54,0,0,1,.79-1.08,5.2,5.2,0,0,1,1-.83,6,6,0,0,1,1.23-.56,5.23,5.23,0,0,1,1.38-.21,5,5,0,0,1,1.39.16,5.44,5.44,0,0,1,1.25.5,5.16,5.16,0,0,1,1.08.79,5.58,5.58,0,0,1,.83,1,5.25,5.25,0,0,1,.77,2.61Zm-.93,0a4.93,4.93,0,0,0-.17-1.17,5.53,5.53,0,0,0-.45-1.05,4.48,4.48,0,0,0-.69-.87,4.76,4.76,0,0,0-.88-.67,3.72,3.72,0,0,0-1-.42,4.41,4.41,0,0,0-1.15-.13,4.32,4.32,0,0,0-1.15.18,4,4,0,0,0-1.85,1.17,4.36,4.36,0,0,0-1,2,4.64,4.64,0,0,0-.12,1.18,4.4,4.4,0,0,0,1.29,3.08,4.21,4.21,0,0,0,1.37.89,4.12,4.12,0,0,0,1.68.31,4,4,0,0,0,1.67-.38,4.45,4.45,0,0,0,1.35-1,4.4,4.4,0,0,0,.87-1.41A4.45,4.45,0,0,0,652.51,17.68Zm-583.22,3H33.09L6.72,78.2H42.91Zm497.7,0h72.4L615.12,73.6a32.4,32.4,0,0,1-9.25,11.5c-5.24,4.2-11.57,6.9-17.28,6.9H0l3.17-6.9H573.65l3.17-6.9h-36.2c-5.71,0-9.57-2.69-11-6.9-1-3.15-.69-7.15,1.3-11.5l9.49-20.7a32.71,32.71,0,0,1,9.25-11.5c5.24-4.2,11.57-6.89,17.27-6.9Zm14.93,6.9-20,43.7H580l20-43.7ZM56.49,78.2,92.36,0h72.39c10,0,14.32,8.24,9.66,18.4l-9.49,20.7c-4.67,10.16-16.55,18.4-26.54,18.4h2.26L147,78.2h-36.2l-6.34-20.7h-2.26l-9.5,20.7Zm48.85-27.6h18.1L143.49,6.9h-18.1ZM78.78,0H42.59L36.26,13.8H72.45Z"/></svg>