<svg id="Layer_1" data-name="Layer 1" xmlns="http://www.w3.org/2000/svg" viewBox="0 0 486.12 467.01"><path d="M31.92,456.75H5L24.61,414H51.55Zm26.69-58.18H31.68L27,408.84H53.9ZM320.83,414H293.89l-19.62,42.78H301.2Zm7.06-15.4H301l-4.71,10.27h26.93ZM69,456.75H42l26.69-58.18h53.85c7.44,0,10.66,6.13,7.19,13.69l-7.06,15.4c-3.47,7.56-12.31,13.69-19.75,13.69h1.68l4.72,15.4H82.42l-4.72-15.4H76Zm9.42-20.54H91.83l14.91-32.51H93.28ZM355.5,419.1H369l-17.27,37.65h26.93L392,427.66c3.47-7.56.25-13.69-7.18-13.69H330.92L311.3,456.75h26.93Zm-155.4,8.56-13.34,29.09H132.91c-7.44,0-10.66-6.13-7.19-13.69l2.35-5.13a24.26,24.26,0,0,1,6.88-8.56c3.91-3.13,8.61-5.13,12.87-5.13h26.92l2.36-5.14H143.44l2.35-5.13h47.13c7.43,0,10.65,6.13,7.18,13.69m-27.71,1.71H158.93l-10.21,22.24h13.47Zm37.93,27.38h40.39c7.44,0,16.28-6.13,19.75-13.69l.78-1.71H244.31l-4.7,10.26H226.14l14.91-32.51h13.47l-4.72,10.27h26.93l.79-1.71c3.47-7.56.25-13.69-7.19-13.69H229.94c-4.25,0-9,2-12.86,5.13a24.33,24.33,0,0,0-6.88,8.56l-7.06,15.4c-3.47,7.56-.25,13.69,7.18,13.69M475.66,414l-18.05,39.36a24.23,24.23,0,0,1-6.88,8.55c-3.91,3.13-8.61,5.13-12.86,5.13H0l2.36-5.13H426.75l2.36-5.13H402.18c-4.25,0-7.12-2-8.15-5.14-.77-2.34-.52-5.31,1-8.55l7.06-15.4a24.24,24.24,0,0,1,6.88-8.56c3.9-3.12,8.6-5.12,12.85-5.13h53.87Zm-29.29,5.13H432.91L418,451.61h13.47Zm32.15-6.2a3.76,3.76,0,0,0,.42.91,3.5,3.5,0,0,0,.62.77,3.85,3.85,0,0,0,.8.59,3.61,3.61,0,0,0,.93.37,3.51,3.51,0,0,0,1,.12,4,4,0,0,0,1-.16,4.15,4.15,0,0,0,.91-.41,3.92,3.92,0,0,0,.77-.63,3.54,3.54,0,0,0,.59-.79,4.22,4.22,0,0,0,.38-.93,3.92,3.92,0,0,0,.11-1,3.52,3.52,0,0,0-.16-1,3.87,3.87,0,0,0-1-1.69,3.48,3.48,0,0,0-.8-.58,3.79,3.79,0,0,0-.93-.38,4,4,0,0,0-1-.11,3.47,3.47,0,0,0-1,.15,4,4,0,0,0-1.69,1,4.17,4.17,0,0,0-.59.79,4.28,4.28,0,0,0-.37.94,4.4,4.4,0,0,0-.12,1,4.34,4.34,0,0,0,.16,1m.64-1.92a3.4,3.4,0,0,1,.3-.79,2.92,2.92,0,0,1,.48-.67,3,3,0,0,1,.63-.53,3.43,3.43,0,0,1,.75-.34,3,3,0,0,1,.85-.13,3.54,3.54,0,0,1,.86.09,2.85,2.85,0,0,1,.76.32,3.17,3.17,0,0,1,.65.49,3.23,3.23,0,0,1,.52.65,3.39,3.39,0,0,1,.33.78,3.59,3.59,0,0,1,.13.87,3.32,3.32,0,0,1-.87,2.33,3.37,3.37,0,0,1-1,.71,3.19,3.19,0,0,1-2.5.05,3.27,3.27,0,0,1-1-.66,3.26,3.26,0,0,1-1-2.29,4.24,4.24,0,0,1,.09-.88m2.79,1.45a.37.37,0,0,1,.2,0,.4.4,0,0,1,.12.11l.78,1.36a.35.35,0,0,0,.33.17l1.09,0-1-1.6a1.88,1.88,0,0,0-.16-.23.67.67,0,0,0-.2-.17,1.38,1.38,0,0,0,.74-.52,1.44,1.44,0,0,0,.22-.82,1.21,1.21,0,0,0-.47-1,2.33,2.33,0,0,0-1.45-.32l-1.68,0,.09,4.71,1.13,0,0-1.71Zm-.33-2.14h.56a1.23,1.23,0,0,1,.4,0,.53.53,0,0,1,.24.11.41.41,0,0,1,.12.2,1.27,1.27,0,0,1,0,.29,1.32,1.32,0,0,1,0,.3.45.45,0,0,1-.13.22.57.57,0,0,1-.27.14,1.72,1.72,0,0,1-.44.05l-.47,0Z"/><path d="M0,0V377.66H475.66V0ZM198.76,344.48c-1.9,7.26-3.15,13.77-4.77,20.74H12.46V12.45H38.29c-1.49.83-1.65,3.65-1.65,7q1.48,5.48,3,10.93c0,3.48,1.65,5.64,1.65,9.11C37,39.28,34.48,41.92,31,46.23c-5.79,7.45-4.13,6.3-2.48,11.26,2.15,6-.16,10.1,5.13,12.42,2.83,1.17,5-2,6-5.79,1.65,4.79,2.81,7.45,4.64,12.41,1.81,2.33,4.79,6.31,7.77,5.14,4.64,0,5.81,3.15,6.63,6.46-1.32,5.63.17,5.14,3.14,8.77,1.34,2.16,2.49,5.3,3.66,6.13a32.54,32.54,0,0,1,2.47,2.5c3.65,4.46,6.3,9.26,9.94,13.74,6.79,5.12,10.59,8.93,12.92,13.41,10.77,14.07,13.9,21.19,22.52,27.81,2.15,3.31,6.29,5.47,6.79,9.78.83,7.95,14.24,19.53,22,27a215.47,215.47,0,0,0,36.6,29.32C191.47,261.34,202.07,306.72,198.76,344.48Zm39.08-155c-18.55-.34-28.81-5.13-24.84-15.74,4.14,19.38,40.24,11.26,77.34,1.16C274.77,182.19,258.71,190,237.84,189.48ZM463.21,365.21H318.46c-.54-3-1.17-6-1.79-9-.34-2.15-1.34-4.14-1.34-6.29,0-1.5,1.34-2.81,1.5-4.31,2.65-38.9,13.91-64.74,21.19-98.36,1.17-5.64,2.65-10.77,2.16-13.08,8.78-6,17.22-9.61,23-20.21,12.91-9.44,21.19-18.71,22.69-28.48,4.3-4.64,14.4-3.65,14.4-13.08,4.64-4.63,7.12-8.28,7.95-13.42,6.3-8.11,15.06-17.05,15.57-22.69,8.6-6.28,14.4-10.76,11.09-17.38,5-2.31,7.78-7.45,6.46-12.25,3.64-4.47,10.93-5,13.25-9.27,1.32-1.69,2.93-3.51,4.54-5.34,0,0,0,0,.05,0,1.13-1.26,3.35-3.91,3.35-3.91l.67-.81Zm-.66-293.06a7,7,0,0,0-.47-.58c-.46-.56-1-1.13-1.52-1.66.34-5.47-2.47-7.94-8.77-8.78.5-5.3,2.82-11.42,4.3-16.89q4-6.21,1.5-9.44c-3.48-3.3-6.13.17-10.1,7.13-1.83,3.64-4.32,9.6-6.29,13.25a59,59,0,0,0-6.3,10.27c-3.81,4.14-8.29,11.43-8.29,16.89-2,2.64-2.31,4.3-4.3,5.45a3,3,0,0,0-3.8,1c-.49,2.32-2,3.64-2,5.3-4.31-1.66-7.45,2.15-9.77,9.45-1.49.82-5.13,2-5.31,3.31-1.81,1.32-2.32,3.32-4.13,4.46-4,.5-4.64,4.8-7.12,7.28-2.32.84-4.15,3.82-5.63,6.63-3-.16-6.14,3.81-7.45,6.95-5.47,3.32-7.45,5.8-9.27,10.43-4.13.35-9.28,2.5-11.77,7.47-4.47,2.8-9.44,7.44-11.42,12.25-4.64,3.14-7.62,7.78-12.26,15.23-5-2.32-10.43-2.32-16.06,0-3.47-.82-6.79-1.48-10.26-2.15-2-2-2.16-4-.83-6v-6.63c1.49-5.3,3-10.58,4.46-16.06,4-9.78,4-18.71,2.49-27.82a50.92,50.92,0,0,0-4-24.34c-9.28-6.8-22.69-12.25-34-12.25-14.07-1.83-23.84,0-33.45,5.14-5.13,3-9.93,6.78-15.07,9.75-5.63,2.82-10.43,15.9-15.57,23.85-5.3,11.43-1.15,12.59,3.65,10.27H214c-9.45-.33-.84-8.61,3.14-8.94,13.41-1.33,27.82-1,48.52,11.93,6.45,3.63,12.76,6.95,18.55,5.3,2.49,3.14-2.82,7.77-8.95,9.26-29.64,1.65-57.62,1.82-60.27-5.46,1.15-4,1.32-8.44,2-12.26a4.5,4.5,0,0,0-1.49.17c2,1.16-.33,9.26-1,14.75-3.8,2.8-5,6.94-3.65,12.41,1.46,4,2.76,8.23,1.59,14.12l-4,1.93c-2.95-1.61-5.6-2.95-8.48-4.29a14.15,14.15,0,0,0-9.59.65c-3.78-4.75-7.72-4.95-11.51-4.48l-7.52-6.07c-.39-8.32-4.54-14.11-12.45-14.78-3.3-2.48-6.78-3.64-10.27-6.13v-6.61c-1.32-4.15-3.47-8.13-10.09-10.28-5.3.5-6.62-4.63-9.77-9.44-4.14-3.47-8.12-7.45-12.25-10.76-2-3-6.13-4.63-8.13-7.62-2.81-1.49-4.3-3.8-7.28-5.29-1.15-1.17-2.81-5-4.79-6.79-1.67-1.49-3.65-1.16-5-1.16-1.49-2.32-2-2.66-3.31-5-3-2.31-6-4.47-9-6.62-2.32-3-4.8-5.8-7.29-8.78-2-1.48-3.81-3-5.79-4.46-3.81-7.45-10.27-15.07-13.42-21.2-2.31-3.15-1.32-5.64-3.48-8.78l-3.23-6.17c-1.33-2.58-2.67-5.15-4-7.74-.33-.16-.5-.33-.83-.33H463.21V73.06C463,72.77,462.8,72.46,462.55,72.15Z"/></svg>