<svg id="Layer_1" data-name="Layer 1" xmlns="http://www.w3.org/2000/svg" viewBox="0 0 653.44 121.37"><path d="M0,121.37H152.86V0H0ZM76.43,60.89c-6-.11-9.26-1.65-8-5.06,1.33,6.23,12.93,3.62,24.85.37C88.3,58.55,83.14,61.05,76.43,60.89Zm72.43,56.48H102.34c-.17-1-.38-1.93-.57-2.89a13.23,13.23,0,0,1-.43-2c0-.48.43-.9.48-1.38.85-12.51,4.47-20.81,6.81-31.62.37-1.81.85-3.46.69-4.2,2.82-1.92,5.54-3.09,7.4-6.49,4.15-3,6.81-6,7.29-9.16,1.38-1.49,4.63-1.17,4.63-4.2a7.51,7.51,0,0,0,2.55-4.31c2-2.61,4.84-5.48,5-7.3,2.76-2,4.63-3.45,3.56-5.58a3.46,3.46,0,0,0,2.08-3.94c1.17-1.44,3.51-1.59,4.26-3,.39-.52.89-1.06,1.38-1.62l.05-.06,0-.05c.37-.4,1.08-1.26,1.08-1.26l.21-.26ZM148.86,4V23.48a2.73,2.73,0,0,0-.21-.3s-.1-.13-.15-.18-.32-.37-.49-.54c.11-1.75-.79-2.55-2.82-2.82a36.24,36.24,0,0,1,1.38-5.42c.86-1.33,1-2.35.48-3-1.12-1.06-2,.06-3.24,2.29-.59,1.17-1.39,3.09-2,4.26a19.16,19.16,0,0,0-2,3.3c-1.22,1.33-2.66,3.67-2.66,5.43-.64.85-.74,1.38-1.38,1.75a1,1,0,0,0-1.23.32c-.15.75-.63,1.17-.63,1.71-1.39-.54-2.4.69-3.14,3-.48.27-1.65.64-1.71,1.07-.58.42-.74,1.06-1.33,1.43-1.28.16-1.49,1.54-2.29,2.34a4.38,4.38,0,0,0-1.81,2.13c-1-.05-2,1.22-2.39,2.24a6,6,0,0,0-3,3.35,4.61,4.61,0,0,0-3.78,2.4,9.63,9.63,0,0,0-3.67,3.93c-1.49,1-2.45,2.5-3.94,4.9a6.19,6.19,0,0,0-5.16,0c-1.12-.27-2.19-.48-3.3-.69a1.38,1.38,0,0,1-.27-1.92V52.32c.48-1.7,1-3.4,1.44-5.16a15.8,15.8,0,0,0,.8-8.94,16.28,16.28,0,0,0-1.28-7.82,20.12,20.12,0,0,0-10.91-3.94c-4.52-.59-7.66,0-10.75,1.65-1.65.95-3.19,2.18-4.84,3.14-1.81.9-3.36,5.1-5,7.66-1.7,3.67-.37,4.05,1.17,3.3-2.94-.15-.2-2.77,1.07-2.87,4.31-.43,8.94-.32,15.59,3.83,2.08,1.17,4.1,2.23,6,1.7.8,1-.9,2.5-2.87,3-9.53.53-18.52.59-19.37-1.76a37.52,37.52,0,0,0,.64-3.94,1.32,1.32,0,0,0-.48.06c.64.37-.11,3-.32,4.74a3.49,3.49,0,0,0-1.17,4,7.93,7.93,0,0,1,.51,4.54L67,56.1c-1-.52-1.8-1-2.73-1.38a4.53,4.53,0,0,0-3.08.21,3.61,3.61,0,0,0-3.7-1.44l-2.41-2c-.13-2.68-1.47-4.54-4-4.75-1.06-.8-2.18-1.17-3.3-2V42.69a4.53,4.53,0,0,0-3.24-3.3c-1.7.16-2.13-1.49-3.14-3C40,35.24,38.75,34,37.42,32.9c-.64-1-2-1.49-2.61-2.45-.9-.48-1.38-1.22-2.34-1.7a23.7,23.7,0,0,0-1.54-2.19,2.13,2.13,0,0,0-1.6-.37c-.47-.74-.64-.85-1.06-1.6-1-.74-1.92-1.43-2.88-2.13-.74-.95-1.54-1.86-2.34-2.82-.63-.47-1.22-.95-1.86-1.43-1.22-2.4-3.3-4.84-4.31-6.81-.75-1-.43-1.81-1.12-2.82l-1-2L13.42,4.1c-.11,0-.16-.1-.27-.1ZM4,4h8.3c-.48.26-.53,1.17-.53,2.23l1,3.51c0,1.12.53,1.82.53,2.93-1.38-.05-2.18.8-3.3,2.18-1.86,2.4-1.33,2-.8,3.62.69,1.92-.05,3.25,1.65,4,.91.38,1.6-.63,1.92-1.86.53,1.54.9,2.4,1.49,4,.58.75,1.54,2,2.5,1.65,1.49,0,1.86,1,2.13,2.08-.43,1.81,0,1.65,1,2.82a10.6,10.6,0,0,0,1.17,2,10.06,10.06,0,0,1,.8.8c1.17,1.43,2,3,3.19,4.42a13.18,13.18,0,0,1,4.15,4.31c3.46,4.52,4.47,6.81,7.24,8.94.69,1.06,2,1.75,2.18,3.14.27,2.55,4.58,6.27,7.08,8.67a69.33,69.33,0,0,0,11.76,9.42c4.1,11.18,7.51,25.76,6.44,37.9-.61,2.33-1,4.42-1.53,6.66H4Z"/><path d="M370.46,71.11l7.06-15.4a24.36,24.36,0,0,1,6.89-8.56C388.31,44,393,42,397.27,42h40.39c7.44,0,10.65,6.13,7.19,13.69l-.79,1.71H417.13l4.71-10.27H408.38L393.47,79.67h13.46l4.71-10.27h26.93l-.79,1.71C434.32,78.67,425.48,84.8,418,84.8H377.65C370.21,84.8,367,78.67,370.46,71.11ZM505.56,84.8l17.26-37.65h13.46L519,84.8H546l13.34-29.09c3.46-7.56.25-13.69-7.19-13.69H498.25L478.63,84.8Zm-37,0L488.15,42H461.22L441.6,84.8ZM295.4,66a24.26,24.26,0,0,1,6.88-8.56c3.9-3.13,8.61-5.13,12.86-5.13h26.93l2.35-5.14H310.77L313.12,42h47.12c7.44,0,10.66,6.13,7.19,13.69L354.08,84.8H300.23c-7.43,0-10.65-6.13-7.19-13.69Zm20.65,13.69h13.46l10.2-22.25H326.25Zm179.16-53H468.29l-4.71,10.27h26.93Zm155.6,13.93,1,1.59-1.08,0a.34.34,0,0,1-.33-.17l-.78-1.36a.4.4,0,0,0-.12-.11.3.3,0,0,0-.2,0H649l0,1.71-1.13,0-.1-4.71,1.69,0a2.3,2.3,0,0,1,1.44.32,1.2,1.2,0,0,1,.48,1,1.43,1.43,0,0,1-.23.82,1.41,1.41,0,0,1-.74.53.83.83,0,0,1,.21.16A1.43,1.43,0,0,1,650.81,40.55Zm-.5-1.59a1.88,1.88,0,0,0,0-.28.55.55,0,0,0-.12-.21.65.65,0,0,0-.25-.11,1.17,1.17,0,0,0-.39,0h-.57l0,1.35h.47a1.37,1.37,0,0,0,.44-.06.62.62,0,0,0,.27-.13.58.58,0,0,0,.13-.23A1.32,1.32,0,0,0,650.31,39Zm3.13.8a3.51,3.51,0,0,1-.12,1,3.76,3.76,0,0,1-.37.93,3.85,3.85,0,0,1-.59.8,4.19,4.19,0,0,1-.77.62,4,4,0,0,1-.92.41,3.89,3.89,0,0,1-1,.16,3.55,3.55,0,0,1-1-.12,3.79,3.79,0,0,1-1.72-1,3.6,3.6,0,0,1-.63-.77,4,4,0,0,1-.41-.91,3.88,3.88,0,0,1-.16-1,4,4,0,0,1,.12-1,3.76,3.76,0,0,1,.37-.93,3.86,3.86,0,0,1,1.36-1.42,3.8,3.8,0,0,1,.92-.41,3.4,3.4,0,0,1,1-.16,4,4,0,0,1,1,.11,4.17,4.17,0,0,1,1.73,1,4,4,0,0,1,1,1.69A3.89,3.89,0,0,1,653.44,39.76Zm-.69,0a3.6,3.6,0,0,0-.13-.88,4.18,4.18,0,0,0-.34-.78A3.17,3.17,0,0,0,651.12,37a2.89,2.89,0,0,0-.77-.31,3,3,0,0,0-.86-.1,3.43,3.43,0,0,0-.85.13,3.65,3.65,0,0,0-.75.34,3.54,3.54,0,0,0-.63.53,3.51,3.51,0,0,0-.47.67,3.58,3.58,0,0,0-.3.79,3.21,3.21,0,0,0-.09.88,3.32,3.32,0,0,0,.27,1.27,3.28,3.28,0,0,0,.69,1,3,3,0,0,0,1,.66,2.93,2.93,0,0,0,1.25.23,3.13,3.13,0,0,0,1.25-.28,3.2,3.2,0,0,0,1-.71,3.22,3.22,0,0,0,.88-2.32ZM218.87,42H191.94L172.32,84.8h26.93Zm370.26,0H643L624.93,81.38a24.09,24.09,0,0,1-6.87,8.55c-3.91,3.13-8.62,5.13-12.87,5.13H167.33l2.35-5.13h424.4l2.36-5.13H569.51c-4.25,0-7.12-2-8.15-5.13-.78-2.35-.52-5.32,1-8.56l7.06-15.4a24.33,24.33,0,0,1,6.88-8.56c3.9-3.12,8.6-5.12,12.85-5.13Zm11.11,5.13L585.33,79.67h13.46L613.7,47.15ZM209.35,84.8,236,26.62h53.86c7.43,0,10.65,6.13,7.18,13.69L290,55.71c-3.47,7.56-12.31,13.69-19.74,13.69H272l4.72,15.4H249.74L245,69.4h-1.68l-7.06,15.4ZM245.7,64.27h13.46l14.91-32.51H260.61ZM225.94,26.62H199L194.3,36.89h26.93Z"/></svg>